<svg xmlns="http://www.w3.org/2000/svg" xmlns:xlink="http://www.w3.org/1999/xlink" id="Layer_1" enable-background="new 0 0 20 20" viewBox="0 0 20 20"><defs id="defs15"><linearGradient id="linearGradient4143"><stop id="stop4145" offset="0" stop-color="#000092"/><stop id="stop4147" offset="1" stop-color="#ff00f3"/></linearGradient><linearGradient id="linearGradient4149" x1="2" x2="16.647" y1="9.55" y2="9.55" gradientUnits="userSpaceOnUse" xlink:href="#linearGradient4143"/></defs><path id="XMLID_1230_" fill="url(#linearGradient4149)" d="M 8.5 3 C 8.2 3 8 3.2 8 3.5 L 8 4.5 C 8 4.8 8.2 5 8.5 5 C 8.8 5 9 4.8 9 4.5 L 9 3.5 C 9 3.2 8.8 3 8.5 3 z M 5.4628906 3.7382812 C 5.3983985 3.7484526 5.33253 3.7730469 5.2675781 3.8105469 C 5.0077704 3.9605469 4.9339844 4.2323799 5.0839844 4.4921875 L 5.5839844 5.359375 C 5.7339844 5.6191827 6.0077705 5.6910156 6.2675781 5.5410156 C 6.5273858 5.3910156 6.6011719 5.1191826 6.4511719 4.859375 L 5.9511719 3.9921875 C 5.8386719 3.7973317 5.6563671 3.7077675 5.4628906 3.7382812 z M 11.771484 3.8535156 C 11.578008 3.8230018 11.395703 3.9145193 11.283203 4.109375 L 10.783203 4.9746094 C 10.633203 5.234417 10.706989 5.5082031 10.966797 5.6582031 C 11.226605 5.8082031 11.500391 5.734417 11.650391 5.4746094 L 12.150391 4.609375 C 12.300391 4.3495674 12.226605 4.0757813 11.966797 3.9257812 C 11.901845 3.8882814 11.835977 3.8636869 11.771484 3.8535156 z M 3.3613281 5.8085938 C 3.2395855 5.8307576 3.128322 5.9059485 3.0429688 6.0292969 C 2.8722622 6.2759937 2.9232252 6.5539029 3.1699219 6.7246094 L 3.9921875 7.2929688 C 4.2388842 7.4636752 4.5167934 7.4146653 4.6875 7.1679688 C 4.8582065 6.921272 4.8072436 6.6414096 4.5605469 6.4707031 L 3.7382812 5.9023438 C 3.614933 5.8169905 3.4830708 5.7864299 3.3613281 5.8085938 z M 8.5 5.9550781 C 6.545098 5.9550781 5 7.5001761 5 9.4550781 C 5 9.9851703 5.1404604 10.416001 5.296875 10.792969 C 4.2697579 11.165965 3.5 12.095694 3.5 13.300781 C 3.5 14.857192 4.7214409 16.099609 6.1992188 16.099609 L 15 16.099609 C 16.97451 16.099609 18.599609 14.47451 18.599609 12.5 A 0.50005 0.50005 0 0 0 18.599609 12.470703 C 18.493883 10.673353 17.236573 9.3241632 15.648438 8.9570312 C 15.285864 7.3651587 13.957183 6.0996094 12.300781 6.0996094 C 11.640611 6.0996094 11.047131 6.3086041 10.542969 6.6484375 C 9.982213 6.2156729 9.277809 5.9550781 8.5 5.9550781 z M 8.5 6.9550781 C 8.9955938 6.9550781 9.3641307 7.184353 9.7148438 7.4257812 C 9.5224122 7.6760987 9.3623923 7.952687 9.234375 8.2460938 C 9.2200052 8.2749011 9.2010342 8.2983172 9.1875 8.328125 C 9.0565351 8.3131087 8.89487 8.2558594 8.8007812 8.2558594 C 8.3145291 8.2558594 7.887826 8.3886784 7.5136719 8.6054688 C 6.9227893 8.893498 6.4417644 9.3722923 6.1308594 9.9726562 C 6.070739 9.8084773 6 9.6513421 6 9.4550781 C 6 8.0099801 7.054902 6.9550781 8.5 6.9550781 z M 12.300781 7.0996094 C 13.534115 7.0996094 14.637583 8.1119592 14.804688 9.3652344 A 0.50005 0.50005 0 0 0 15.234375 9.7949219 C 16.481638 9.9612236 17.498105 11.041768 17.59375 12.511719 C 17.58605 13.930866 16.420802 15.099609 15 15.099609 L 6.1992188 15.099609 C 5.2769964 15.099609 4.5 14.344371 4.5 13.300781 C 4.5 12.257192 5.2769965 11.5 6.1992188 11.5 A 0.50005 0.50005 0 0 0 6.6933594 11.076172 C 6.6983909 11.043467 6.710431 11.014455 6.7167969 10.982422 C 6.88751 10.392422 7.250851 9.8760979 7.7402344 9.5664062 C 8.0521456 9.3962303 8.4131148 9.3007812 8.8007812 9.3007812 C 9.0007814 9.3007812 9.0950382 9.3072812 9.1757812 9.3476562 A 0.50005 0.50005 0 0 0 9.8867188 9.0117188 C 9.9071885 8.9230157 9.9401553 8.8391253 9.9707031 8.7539062 C 10.152079 8.293935 10.434245 7.9490885 10.8125 7.6464844 A 0.50005 0.50005 0 0 0 10.90625 7.5488281 C 11.307167 7.2717238 11.786069 7.0996094 12.300781 7.0996094 z M 2.5 9 C 2.2 9 2 9.2 2 9.5 C 2 9.8 2.2 10 2.5 10 L 3.5 10 C 3.8 10 4 9.8 4 9.5 C 4 9.2 3.8 9 3.5 9 L 2.5 9 z "/></svg>